# xmcd CD database file
#
# Track frame offsets:
#	150
#	15619
#	34123
#	53510
#	69400
#	95345
#	113832
#	131800
#	148519
#	163642
#
# Disc length: 2383 seconds
#
# Revision: 1
# Processed by: cddbd v1.4PL0 Copyright (c) Steve Scherf et al.
# Submitted via: CDex 1.50
#
DISCID=7f094d0a
DTITLE=Various Artist - Bachata Premium 2003
DYEAR=2002
DGENRE=Bachata
TTITLE0=Aventura-La Guerra
TTITLE1=Elvis Martinez-Asi te amo
TTITLE2=Negros-Me caso con ella
TTITLE3=Sophy Anthony Rios-Quiero tenerte
TTITLE4=Aventura-Ensename a olvidar
TTITLE5=Monchy and Alexandra-Dos locos
TTITLE6=Elvis Martinez--Maestra
TTITLE7=Gringo-Gringo muere de dolor
TTITLE8=David Paredes-Por mi madre que yo no fui
TTITLE9=David Paredes-Un millon de lagrimas
EXTD=YEAR: 2002
EXTT0=
EXTT1=
EXTT2=
EXTT3=
EXTT4=
EXTT5=
EXTT6=
EXTT7=
EXTT8=
EXTT9=
PLAYORDER=
